<svg version="1.1" id="Layer_1" xmlns="http://www.w3.org/2000/svg" xmlns:xlink="http://www.w3.org/1999/xlink" x="0px" y="0px"
	 width="100%" viewBox="0 0 3000 1000" enable-background="new 0 0 3000 1000" xml:space="preserve">
<path fill="#0D1117" opacity="1.000000" stroke="none" 
	d="
M2114.000000,1001.000000 
	C1409.333374,1001.000000 705.166687,1001.000000 1.000000,1001.000000 
	C1.000000,667.666687 1.000000,334.333344 1.000000,1.000000 
	C1001.000000,1.000000 2001.000000,1.000000 3001.000000,1.000000 
	C3001.000000,334.333344 3001.000000,667.666687 3001.000000,1001.000000 
	C2705.500000,1001.000000 2410.000000,1001.000000 2114.000000,1001.000000 
M587.797852,841.110596 
	C588.732056,840.760010 589.666260,840.409424 590.510559,840.026855 
	C590.510559,840.026855 590.479858,840.117188 591.296570,840.270813 
	C592.560547,839.863281 593.824524,839.455750 595.020874,839.036621 
	C595.020874,839.036621 595.026184,839.105103 595.526611,839.257935 
	C595.686401,839.188110 595.846130,839.118286 596.777649,839.103943 
	C597.714050,838.745728 598.650391,838.387512 599.503723,838.002441 
	C599.503723,838.002441 599.477356,838.085693 600.177124,838.185364 
	C601.247437,837.837585 602.317810,837.489807 604.247070,837.130127 
	C615.834045,833.431152 627.517456,830.003723 638.972107,825.932434 
	C645.974854,823.443481 652.672791,820.065430 659.423401,816.906616 
	C668.057800,812.866272 676.607300,808.644592 685.799072,804.257263 
	C685.949585,803.919800 686.100037,803.582336 686.303528,803.345825 
	C686.303528,803.345825 686.414246,803.318665 687.118591,803.458862 
	C722.449890,783.586975 753.473328,758.353638 779.454407,727.287781 
	C849.402771,643.649963 875.664429,547.555603 857.477478,440.282288 
	C844.513306,363.815125 807.974121,299.281250 751.176880,246.399368 
	C731.488708,228.068451 709.972473,212.152939 685.710693,198.815445 
	C646.410400,176.609634 604.305786,162.710648 559.549744,157.302307 
	C544.582886,155.493698 529.389709,155.558426 513.411865,154.518509 
	C510.428131,154.614700 507.444824,154.729340 504.460571,154.804260 
	C467.962494,155.720627 432.591217,162.639725 398.288300,175.006302 
	C377.182434,182.615219 356.811371,191.829208 337.197388,204.099411 
	C308.831787,221.055237 283.275787,241.564880 261.166107,266.085419 
	C190.010284,345.000153 160.240448,437.605743 171.421463,543.112061 
	C175.837997,584.787476 188.299652,624.344116 207.902267,661.467346 
	C237.837189,718.157654 279.482117,763.987793 335.069580,797.724609 
	C335.535980,797.843323 336.002380,797.962097 336.477142,798.097961 
	C336.477142,798.097961 336.471619,798.116821 336.783936,798.772583 
	C341.554810,801.379639 346.193756,804.273315 351.120605,806.541626 
	C367.475433,814.071106 383.635559,822.165222 400.447205,828.515930 
	C413.873199,833.587646 428.141022,836.431091 442.429382,840.873840 
	C452.995850,842.537354 463.562317,844.200928 475.452454,846.087219 
	C475.899841,846.082153 476.347229,846.077087 477.173157,846.312378 
	C495.371490,846.938904 513.578613,848.214233 531.765137,847.968079 
	C544.273865,847.798889 556.754089,845.519409 569.643982,844.323914 
	C569.643982,844.323914 570.009521,844.118774 570.808594,844.195801 
	C572.349304,843.881592 573.889954,843.567383 575.749695,843.379700 
	C575.749695,843.379700 576.004822,843.151428 576.776184,843.203796 
	C578.240967,842.851990 579.705750,842.500183 581.612854,842.249023 
	C581.612854,842.249023 582.015259,842.044678 582.738159,842.117920 
	C583.868591,841.793945 584.999023,841.469971 586.593506,841.248047 
	C586.593506,841.248047 587.018066,841.041443 587.797852,841.110596 
M1530.944214,522.322388 
	C1525.017090,543.241821 1523.094482,564.564026 1525.334229,586.150208 
	C1528.433594,616.020142 1540.921997,641.430054 1564.888794,659.743652 
	C1600.822998,687.202087 1640.012329,689.387451 1680.752075,671.319214 
	C1687.990479,668.108887 1694.661011,663.618225 1701.748169,659.631836 
	C1703.621948,663.136780 1705.275024,666.761841 1707.399170,670.085876 
	C1711.285889,676.168091 1716.800049,679.337341 1724.246826,678.596985 
	C1737.091431,677.320068 1744.823242,666.966003 1742.632080,653.326721 
	C1738.180786,625.618530 1736.931030,597.690430 1735.994385,569.696960 
	C1734.099609,513.070312 1740.354736,456.876526 1744.213379,400.543945 
	C1745.703857,378.784058 1746.568970,356.963104 1746.994263,335.155853 
	C1747.217651,323.706299 1740.810791,317.511536 1729.789551,316.339508 
	C1718.713867,315.161652 1710.645508,320.249329 1707.982910,330.876740 
	C1706.494751,336.816284 1705.662231,343.006653 1705.305542,349.128937 
	C1703.183350,385.549652 1701.290283,421.983704 1699.294067,458.411835 
	C1699.236694,459.458649 1698.885620,460.489410 1698.573486,462.002625 
	C1693.933350,458.636017 1689.638184,455.781616 1685.637085,452.561676 
	C1677.494507,446.009033 1668.279053,442.093964 1657.952271,440.857361 
	C1652.338623,440.185211 1646.690430,439.501038 1641.048950,439.416443 
	C1623.365234,439.151245 1606.139282,441.680695 1590.087524,449.546478 
	C1559.497192,464.536377 1541.017334,489.541870 1530.944214,522.322388 
M1082.262695,382.784424 
	C1084.871094,382.447540 1085.791748,383.737610 1085.878540,386.209808 
	C1086.083374,392.037506 1086.311157,397.869202 1086.745117,403.683197 
	C1089.572998,441.564392 1092.810425,479.419067 1095.204346,517.327209 
	C1096.873413,543.756714 1097.237793,570.265930 1098.519897,596.723389 
	C1099.302002,612.864319 1100.530518,628.910645 1098.036133,645.074646 
	C1096.222778,656.825256 1103.487183,666.765442 1114.555908,669.658569 
	C1126.239990,672.712524 1135.225586,667.740845 1140.374512,655.759277 
	C1144.705322,645.681335 1145.611450,635.162720 1145.084839,624.414429 
	C1143.944092,601.126282 1142.713867,577.842529 1141.548706,554.555542 
	C1140.899048,541.574951 1140.467773,528.581360 1139.658813,515.611084 
	C1137.014526,473.211914 1134.236572,430.821106 1131.536011,388.425385 
	C1131.404053,386.352722 1131.519043,384.264282 1131.519043,381.106812 
	C1151.836060,381.893768 1171.441895,382.566132 1191.038696,383.436707 
	C1210.838745,384.316254 1230.622192,385.878052 1250.428345,386.204712 
	C1262.835083,386.409363 1271.529663,376.225403 1271.459595,363.587646 
	C1271.389526,350.962189 1262.593872,341.569397 1250.234131,340.983124 
	C1244.742188,340.722626 1239.235229,340.710724 1233.752197,340.335968 
	C1183.525146,336.902893 1133.291138,334.970795 1082.909180,336.628418 
	C1064.840088,337.222961 1046.663208,335.298401 1028.567749,334.053833 
	C1016.780396,333.243103 1005.078247,331.118683 993.288574,330.440674 
	C981.949646,329.788544 972.990845,337.551575 970.984009,348.489594 
	C968.689270,360.996948 973.898254,370.847290 985.549561,374.511139 
	C992.340820,376.646667 999.448853,377.929535 1006.500916,379.053009 
	C1031.287354,383.001770 1056.296143,382.945587 1082.262695,382.784424 
M2614.212402,628.076660 
	C2614.833496,607.930603 2610.172119,589.513184 2596.883545,573.759705 
	C2584.996094,559.667358 2569.702393,550.579529 2552.505127,545.225769 
	C2535.229004,539.847473 2517.490234,535.905090 2499.857666,531.741821 
	C2487.364014,528.792114 2485.693115,524.821960 2493.319580,514.139526 
	C2493.706299,513.597961 2494.132568,513.084106 2494.550049,512.564941 
	C2500.779785,504.813324 2508.913574,499.378601 2518.019287,496.133667 
	C2536.028320,489.715942 2554.356934,484.192932 2572.574219,478.365753 
	C2573.577637,478.044861 2574.772705,478.324249 2576.048096,478.324249 
	C2577.152100,483.707977 2577.988037,488.964844 2579.328125,494.089966 
	C2582.840820,507.525085 2595.177002,513.436646 2608.102783,508.064087 
	C2618.093506,503.911499 2622.747559,493.916840 2620.747314,480.962830 
	C2618.869141,468.799103 2617.158203,456.607300 2615.095703,444.475098 
	C2613.666260,436.067017 2608.872559,430.133087 2600.480469,427.845978 
	C2591.042969,425.273987 2582.062012,427.640625 2573.198975,430.985291 
	C2564.795898,434.156494 2556.351562,437.240234 2547.823730,440.054626 
	C2528.397461,446.465820 2508.487549,451.636108 2489.540527,459.224701 
	C2458.080811,471.824738 2443.133057,496.582886 2444.848877,530.383789 
	C2445.669922,546.564636 2452.829590,559.412476 2467.715088,566.434021 
	C2477.125732,570.873108 2487.206787,574.087646 2497.242676,576.956970 
	C2511.787354,581.115295 2526.702393,583.999329 2541.190674,588.326660 
	C2550.540283,591.119141 2558.873291,596.491211 2564.361572,604.892944 
	C2573.694824,619.181274 2575.474365,638.115723 2553.134766,644.306091 
	C2520.694580,653.295349 2488.448486,655.240356 2459.661621,632.495667 
	C2454.676025,628.556702 2449.153320,627.113708 2442.811279,629.345215 
	C2426.816162,634.973389 2421.535400,653.044067 2432.028809,666.820618 
	C2437.864990,674.482727 2445.874023,679.233887 2454.526855,682.914001 
	C2479.097656,693.364136 2504.827393,696.745789 2531.305176,694.752869 
	C2548.553467,693.454529 2565.274414,689.801025 2580.582275,681.354126 
	C2601.188721,669.983459 2613.294434,653.038879 2614.212402,628.076660 
M1823.233032,474.732544 
	C1787.568970,518.652283 1780.277344,567.875549 1797.612305,620.772339 
	C1805.543945,644.975220 1821.623779,663.891418 1844.566895,675.622131 
	C1885.156250,696.375366 1931.882324,684.880432 1959.477173,647.950684 
	C1975.343384,626.717041 1983.768677,602.602722 1986.111206,576.350525 
	C1989.004517,543.925354 1985.649780,512.460938 1970.178833,483.181854 
	C1958.688599,461.436768 1941.840942,445.848938 1916.847046,442.168182 
	C1880.548706,436.822723 1848.929688,446.596283 1823.233032,474.732544 
M1450.035034,470.435883 
	C1440.533203,456.571960 1428.574463,445.324860 1412.085938,441.080688 
	C1373.754150,431.214081 1339.405396,439.270111 1311.703613,468.097046 
	C1286.876221,493.932892 1275.386353,525.833618 1274.424316,561.517822 
	C1273.720581,587.617310 1278.076538,612.558655 1291.578735,635.442017 
	C1315.213501,675.498108 1361.905273,692.379639 1404.764893,675.779358 
	C1430.333618,665.876160 1446.626587,646.225769 1458.113770,622.245544 
	C1471.845947,593.579102 1474.611938,563.134338 1471.152710,531.945312 
	C1468.736938,510.164368 1462.673218,489.526459 1450.035034,470.435883 
M2799.527100,445.818481 
	C2788.957275,446.828156 2778.387451,447.837799 2767.158936,448.910370 
	C2767.158936,446.840363 2767.165039,445.063110 2767.157715,443.285950 
	C2767.101318,429.804840 2767.767578,416.266296 2766.705811,402.864685 
	C2766.091064,395.106293 2763.482178,387.222839 2760.331787,380.025360 
	C2756.952393,372.304291 2749.822266,369.262848 2741.348877,369.920044 
	C2729.749756,370.819580 2721.092529,379.600616 2721.270020,391.348358 
	C2721.523682,408.163971 2722.453857,424.969086 2723.066162,441.779785 
	C2723.153809,444.183960 2723.078369,446.594086 2723.078369,449.503235 
	C2720.038330,449.217499 2717.915283,448.987305 2715.786621,448.822845 
	C2703.004639,447.835205 2690.233887,446.604492 2677.434326,445.959015 
	C2665.070068,445.335541 2656.207520,453.429688 2654.930176,465.792450 
	C2653.545410,479.195709 2659.817871,488.389252 2672.831299,490.048553 
	C2688.012695,491.984253 2703.318359,493.032227 2718.597168,494.066132 
	C2723.056152,494.367828 2724.537109,495.846680 2724.541992,500.259033 
	C2724.553467,510.248718 2725.072266,520.237000 2725.325684,530.227356 
	C2726.474609,575.499084 2730.376709,620.727600 2727.439697,666.065491 
	C2727.214111,669.548645 2727.296875,673.062927 2727.427979,676.555542 
	C2727.638916,682.181885 2730.035645,686.790161 2734.283447,690.473572 
	C2746.050781,700.677673 2761.915771,697.110840 2768.018311,682.827087 
	C2772.369141,672.642334 2773.183594,661.837463 2772.943115,650.975525 
	C2772.349609,624.164551 2771.524902,597.358643 2770.763428,570.551514 
	C2770.077393,546.409546 2769.361572,522.268311 2768.628174,498.127747 
	C2768.559082,495.852203 2768.334473,493.818512 2771.604736,493.607117 
	C2783.708496,492.824615 2795.795898,491.772888 2807.904541,491.086517 
	C2813.045410,490.795105 2818.239258,491.443329 2823.381592,491.163239 
	C2834.600586,490.552216 2842.503662,481.431641 2842.809326,469.147064 
	C2843.112061,456.990662 2836.374268,448.377350 2824.934814,447.157593 
	C2816.840576,446.294525 2808.660400,446.235413 2799.527100,445.818481 
M2244.049561,676.327209 
	C2244.945801,656.532959 2246.218506,636.747375 2246.673096,616.942993 
	C2248.646729,531.005005 2250.394531,445.061798 2252.173340,359.119446 
	C2252.287109,353.631592 2252.801514,347.946320 2251.610107,342.697754 
	C2250.527588,337.928467 2248.459961,332.299194 2244.907959,329.396881 
	C2237.237305,323.128754 2227.791748,323.465118 2218.826416,327.047729 
	C2210.742188,330.278229 2208.686035,337.472931 2208.288086,345.371887 
	C2208.187744,347.367096 2208.187744,349.367523 2208.148438,351.365631 
	C2206.305176,444.633423 2206.615967,537.948486 2201.791260,631.152283 
	C2201.042725,645.611206 2201.138428,660.130127 2201.326416,674.615051 
	C2201.433838,682.888733 2205.097900,689.441956 2213.396240,692.416992 
	C2227.616455,697.515259 2239.424072,691.550293 2244.049561,676.327209 
M2330.103760,525.382385 
	C2329.342285,539.355591 2327.947754,553.328796 2327.948242,567.302002 
	C2327.949463,598.955566 2328.624512,630.609314 2329.053223,662.262634 
	C2329.239258,675.994324 2337.890625,685.194397 2350.686768,685.358032 
	C2363.849854,685.526367 2372.743896,676.516785 2372.943115,662.466309 
	C2373.056641,654.473145 2372.832764,646.469971 2372.568359,638.477661 
	C2371.339111,601.327209 2370.852295,564.203613 2373.728271,527.078430 
	C2375.001465,510.647552 2375.401855,494.130554 2375.638428,477.644623 
	C2375.788330,467.202301 2370.234131,459.681580 2361.599854,456.770020 
	C2346.259766,451.597168 2332.789307,461.253418 2332.062744,477.992920 
	C2331.391113,493.471863 2330.783447,508.953583 2330.103760,525.382385 
M2383.201904,361.379669 
	C2381.399658,359.426300 2379.771484,357.269501 2377.765137,355.555023 
	C2369.288086,348.311157 2356.563721,347.660797 2347.008789,353.823944 
	C2337.546143,359.927551 2332.830078,371.218292 2335.669678,381.499542 
	C2338.544189,391.907776 2345.439453,398.530121 2355.902344,400.745117 
	C2366.884766,403.070099 2376.110107,399.310760 2382.610352,390.228882 
	C2389.050537,381.230713 2388.905518,371.604675 2383.201904,361.379669 
z"/>
<path fill="#CB96EE" opacity="1.000000" stroke="none" 
	d="
M686.268433,199.305069 
	C709.972473,212.152939 731.488708,228.068451 751.176880,246.399368 
	C807.974121,299.281250 844.513306,363.815125 857.477478,440.282288 
	C875.664429,547.555603 849.402771,643.649963 779.454407,727.287781 
	C753.473328,758.353638 722.449890,783.586975 686.647095,802.908447 
	C686.178162,698.459656 686.181458,594.561279 686.176086,490.662903 
	C686.175964,489.000397 686.069519,487.337860 686.177124,485.405029 
	C698.319275,473.128784 710.312622,461.138519 722.269592,449.112091 
	C732.149475,439.174744 732.094666,429.714142 722.324646,419.647156 
	C710.174561,407.127747 698.113831,394.521606 686.057800,381.488708 
	C686.129089,377.696960 686.179749,374.369385 686.181641,371.041840 
	C686.214172,313.796234 686.240662,256.550659 686.268433,199.305069 
z"/>
<path fill="#FD6E6E" opacity="1.000000" stroke="none" 
	d="
M336.471619,798.116821 
	C336.471619,798.116821 336.477142,798.097961 336.255859,797.806885 
	C335.590393,797.370728 335.146210,797.225586 334.702026,797.080444 
	C279.482117,763.987793 237.837189,718.157654 207.902267,661.467346 
	C188.299652,624.344116 175.837997,584.787476 171.421463,543.112061 
	C160.240448,437.605743 190.010284,345.000153 261.166107,266.085419 
	C283.275787,241.564880 308.831787,221.055237 337.580505,204.514725 
	C337.980743,293.355499 337.996216,381.780975 338.022736,470.206451 
	C338.023529,472.868530 338.139893,475.530518 338.052307,478.490662 
	C328.362549,488.535095 318.813812,498.272583 309.285889,508.030396 
	C300.142242,517.394592 300.177063,527.718079 309.346100,536.979248 
	C318.935150,546.664673 328.518311,556.355896 338.073975,566.509583 
	C338.034424,641.695862 338.038788,716.417175 337.950562,791.138428 
	C337.947815,793.465149 336.986206,795.790710 336.471619,798.116821 
z"/>
<path fill="#FFC67D" opacity="1.000000" stroke="none" 
	d="
M338.202393,478.192566 
	C338.139893,475.530518 338.023529,472.868530 338.022736,470.206451 
	C337.996216,381.780975 337.980743,293.355499 337.920593,204.464996 
	C356.811371,191.829208 377.182434,182.615219 398.288300,175.006302 
	C432.591217,162.639725 467.962494,155.720627 504.460571,154.804260 
	C507.444824,154.729340 510.428131,154.614700 513.843018,155.060272 
	C514.271912,193.261185 514.262207,230.920319 514.269043,268.579468 
	C514.284424,353.562286 514.308044,438.545074 514.153259,523.781677 
	C505.200958,532.896545 496.446228,541.780151 487.640594,550.613037 
	C476.777313,561.509888 467.068115,561.558228 456.260132,550.780090 
	C429.639893,524.233459 403.049622,497.656799 376.417725,471.121918 
	C366.476288,461.216675 355.441986,461.327820 345.387207,471.294098 
	C343.029449,473.631104 340.599274,475.895050 338.202393,478.192566 
z"/>
<path fill="#37E2BE" opacity="1.000000" stroke="none" 
	d="
M514.328247,523.527893 
	C514.308044,438.545074 514.284424,353.562286 514.269043,268.579468 
	C514.262207,230.920319 514.271912,193.261185 514.287048,155.184433 
	C529.389709,155.558426 544.582886,155.493698 559.549744,157.302307 
	C604.305786,162.710648 646.410400,176.609634 685.989563,199.060257 
	C686.240662,256.550659 686.214172,313.796234 686.181641,371.041840 
	C686.179749,374.369385 686.129089,377.696960 685.754822,381.342712 
	C675.025757,372.675323 665.202026,372.976868 655.487793,382.689362 
	C610.010681,428.158112 564.555054,473.648499 519.081238,519.120605 
	C517.554504,520.647278 515.915100,522.061340 514.328247,523.527893 
z"/>
<path fill="#36E2BE" opacity="1.000000" stroke="none" 
	d="
M686.012695,485.675354 
	C686.069519,487.337860 686.175964,489.000397 686.176086,490.662903 
	C686.181458,594.561279 686.178162,698.459656 686.294922,802.838379 
	C686.414246,803.318665 686.303528,803.345825 685.953125,803.325989 
	C685.466309,803.704468 685.329834,804.102783 685.193420,804.501099 
	C676.607300,808.644592 668.057800,812.866272 659.423401,816.906616 
	C652.672791,820.065430 645.974854,823.443481 638.972107,825.932434 
	C627.517456,830.003723 615.834045,833.431152 603.455078,837.108582 
	C601.601196,837.419922 600.539246,837.752808 599.477356,838.085693 
	C599.477356,838.085693 599.503723,838.002441 599.098145,837.980957 
	C597.800171,838.005005 596.907776,838.050476 595.744568,838.147339 
	C595.324585,838.500854 595.175354,838.802979 595.026184,839.105103 
	C595.026184,839.105103 595.020874,839.036621 594.635132,838.974487 
	C592.992920,839.313965 591.736389,839.715576 590.479858,840.117188 
	C590.479858,840.117188 590.510559,840.026855 590.107727,839.992554 
	C588.809204,840.008423 587.913574,840.058594 586.759399,840.113098 
	C586.188049,840.433838 585.875183,840.750244 585.119873,841.018555 
	C583.790466,841.014160 582.903564,841.057861 581.747437,841.101440 
	C581.120972,841.411682 580.763672,841.722107 579.967773,841.989624 
	C578.359314,842.004822 577.189392,842.062866 575.751221,842.131897 
	C575.090637,842.447632 574.698242,842.752319 573.878662,842.999207 
	C572.307617,843.000793 571.163818,843.060242 569.692932,843.119385 
	C568.562073,843.404907 567.758301,843.690857 566.538452,843.935242 
	C564.734741,843.972473 563.346985,844.051331 561.660400,844.136902 
	C560.825806,844.389648 560.290039,844.635620 559.340698,844.842041 
	C557.269287,844.911499 555.611511,845.020569 553.629150,845.120605 
	C552.503540,845.390686 551.702576,845.669739 550.462646,845.898987 
	C547.664856,845.942444 545.305969,846.035767 542.571716,846.105103 
	C540.739990,846.359558 539.283630,846.637878 537.371643,846.864441 
	C529.375000,846.787109 521.833984,846.761475 514.286377,846.284180 
	C514.276306,785.194153 514.275085,724.555786 514.260498,663.917480 
	C514.259949,661.756165 514.126709,659.594910 514.255920,657.219849 
	C515.457886,655.897888 516.412109,654.742432 517.467346,653.688049 
	C572.649170,598.551208 627.838562,543.421997 683.036438,488.301331 
	C683.970825,487.368256 685.018127,486.548187 686.012695,485.675354 
z"/>
<path fill="#FFC67D" opacity="1.000000" stroke="none" 
	d="
M514.055298,657.433594 
	C514.126709,659.594910 514.259949,661.756165 514.260498,663.917480 
	C514.275085,724.555786 514.276306,785.194153 513.802917,846.350464 
	C501.148987,846.603027 488.971802,846.337585 476.794617,846.072083 
	C476.347229,846.077087 475.899841,846.082153 474.560944,845.661377 
	C470.636780,844.629395 467.622620,843.900269 464.567810,843.441772 
	C457.066895,842.315979 449.547272,841.314819 442.035187,840.263550 
	C428.141022,836.431091 413.873199,833.587646 400.447205,828.515930 
	C383.635559,822.165222 367.475433,814.071106 351.120605,806.541626 
	C346.193756,804.273315 341.554810,801.379639 336.627777,798.444702 
	C336.986206,795.790710 337.947815,793.465149 337.950562,791.138428 
	C338.038788,716.417175 338.034424,641.695862 338.354858,566.665283 
	C368.356293,595.967102 397.973907,625.652039 427.822784,655.102661 
	C431.895538,659.121155 436.660950,663.230347 441.893372,665.146057 
	C467.047211,674.355347 491.604462,674.924500 514.055298,657.433594 
z"/>
<path fill="#FCC47C" opacity="1.000000" stroke="none" 
	d="
M1531.033203,521.927368 
	C1541.017334,489.541870 1559.497192,464.536377 1590.087524,449.546478 
	C1606.139282,441.680695 1623.365234,439.151245 1641.048950,439.416443 
	C1646.690430,439.501038 1652.338623,440.185211 1657.952271,440.857361 
	C1668.279053,442.093964 1677.494507,446.009033 1685.637085,452.561676 
	C1689.638184,455.781616 1693.933350,458.636017 1698.573486,462.002625 
	C1698.885620,460.489410 1699.236694,459.458649 1699.294067,458.411835 
	C1701.290283,421.983704 1703.183350,385.549652 1705.305542,349.128937 
	C1705.662231,343.006653 1706.494751,336.816284 1707.982910,330.876740 
	C1710.645508,320.249329 1718.713867,315.161652 1729.789551,316.339508 
	C1740.810791,317.511536 1747.217651,323.706299 1746.994263,335.155853 
	C1746.568970,356.963104 1745.703857,378.784058 1744.213379,400.543945 
	C1740.354736,456.876526 1734.099609,513.070312 1735.994385,569.696960 
	C1736.931030,597.690430 1738.180786,625.618530 1742.632080,653.326721 
	C1744.823242,666.966003 1737.091431,677.320068 1724.246826,678.596985 
	C1716.800049,679.337341 1711.285889,676.168091 1707.399170,670.085876 
	C1705.275024,666.761841 1703.621948,663.136780 1701.748169,659.631836 
	C1694.661011,663.618225 1687.990479,668.108887 1680.752075,671.319214 
	C1640.012329,689.387451 1600.822998,687.202087 1564.888794,659.743652 
	C1540.921997,641.430054 1528.433594,616.020142 1525.334229,586.150208 
	C1523.094482,564.564026 1525.017090,543.241821 1531.033203,521.927368 
M1692.881958,611.028442 
	C1693.761108,608.482056 1695.387207,605.940674 1695.404297,603.388489 
	C1695.588013,576.064758 1695.528320,548.739258 1695.490356,521.414307 
	C1695.487793,519.612854 1695.586670,517.586487 1694.845215,516.046753 
	C1689.310425,504.552704 1681.592285,494.931488 1670.296509,488.546997 
	C1655.783325,480.343750 1640.119873,479.802185 1624.176758,481.966736 
	C1600.079468,485.238373 1582.356934,497.263153 1572.664917,520.138245 
	C1565.415405,537.248840 1563.525269,555.248718 1564.277344,573.506958 
	C1566.192017,619.994690 1612.073853,651.562378 1656.135864,636.800903 
	C1670.571045,631.964844 1681.336182,621.510254 1692.881958,611.028442 
z"/>
<path fill="#FA6D6D" opacity="1.000000" stroke="none" 
	d="
M1081.781494,382.783081 
	C1056.296143,382.945587 1031.287354,383.001770 1006.500916,379.053009 
	C999.448853,377.929535 992.340820,376.646667 985.549561,374.511139 
	C973.898254,370.847290 968.689270,360.996948 970.984009,348.489594 
	C972.990845,337.551575 981.949646,329.788544 993.288574,330.440674 
	C1005.078247,331.118683 1016.780396,333.243103 1028.567749,334.053833 
	C1046.663208,335.298401 1064.840088,337.222961 1082.909180,336.628418 
	C1133.291138,334.970795 1183.525146,336.902893 1233.752197,340.335968 
	C1239.235229,340.710724 1244.742188,340.722626 1250.234131,340.983124 
	C1262.593872,341.569397 1271.389526,350.962189 1271.459595,363.587646 
	C1271.529663,376.225403 1262.835083,386.409363 1250.428345,386.204712 
	C1230.622192,385.878052 1210.838745,384.316254 1191.038696,383.436707 
	C1171.441895,382.566132 1151.836060,381.893768 1131.519043,381.106812 
	C1131.519043,384.264282 1131.404053,386.352722 1131.536011,388.425385 
	C1134.236572,430.821106 1137.014526,473.211914 1139.658813,515.611084 
	C1140.467773,528.581360 1140.899048,541.574951 1141.548706,554.555542 
	C1142.713867,577.842529 1143.944092,601.126282 1145.084839,624.414429 
	C1145.611450,635.162720 1144.705322,645.681335 1140.374512,655.759277 
	C1135.225586,667.740845 1126.239990,672.712524 1114.555908,669.658569 
	C1103.487183,666.765442 1096.222778,656.825256 1098.036133,645.074646 
	C1100.530518,628.910645 1099.302002,612.864319 1098.519897,596.723389 
	C1097.237793,570.265930 1096.873413,543.756714 1095.204346,517.327209 
	C1092.810425,479.419067 1089.572998,441.564392 1086.745117,403.683197 
	C1086.311157,397.869202 1086.083374,392.037506 1085.878540,386.209808 
	C1085.791748,383.737610 1084.871094,382.447540 1081.781494,382.783081 
z"/>
<path fill="#C995EC" opacity="1.000000" stroke="none" 
	d="
M2614.192871,628.518127 
	C2613.294434,653.038879 2601.188721,669.983459 2580.582275,681.354126 
	C2565.274414,689.801025 2548.553467,693.454529 2531.305176,694.752869 
	C2504.827393,696.745789 2479.097656,693.364136 2454.526855,682.914001 
	C2445.874023,679.233887 2437.864990,674.482727 2432.028809,666.820618 
	C2421.535400,653.044067 2426.816162,634.973389 2442.811279,629.345215 
	C2449.153320,627.113708 2454.676025,628.556702 2459.661621,632.495667 
	C2488.448486,655.240356 2520.694580,653.295349 2553.134766,644.306091 
	C2575.474365,638.115723 2573.694824,619.181274 2564.361572,604.892944 
	C2558.873291,596.491211 2550.540283,591.119141 2541.190674,588.326660 
	C2526.702393,583.999329 2511.787354,581.115295 2497.242676,576.956970 
	C2487.206787,574.087646 2477.125732,570.873108 2467.715088,566.434021 
	C2452.829590,559.412476 2445.669922,546.564636 2444.848877,530.383789 
	C2443.133057,496.582886 2458.080811,471.824738 2489.540527,459.224701 
	C2508.487549,451.636108 2528.397461,446.465820 2547.823730,440.054626 
	C2556.351562,437.240234 2564.795898,434.156494 2573.198975,430.985291 
	C2582.062012,427.640625 2591.042969,425.273987 2600.480469,427.845978 
	C2608.872559,430.133087 2613.666260,436.067017 2615.095703,444.475098 
	C2617.158203,456.607300 2618.869141,468.799103 2620.747314,480.962830 
	C2622.747559,493.916840 2618.093506,503.911499 2608.102783,508.064087 
	C2595.177002,513.436646 2582.840820,507.525085 2579.328125,494.089966 
	C2577.988037,488.964844 2577.152100,483.707977 2576.048096,478.324249 
	C2574.772705,478.324249 2573.577637,478.044861 2572.574219,478.365753 
	C2554.356934,484.192932 2536.028320,489.715942 2518.019287,496.133667 
	C2508.913574,499.378601 2500.779785,504.813324 2494.550049,512.564941 
	C2494.132568,513.084106 2493.706299,513.597961 2493.319580,514.139526 
	C2485.693115,524.821960 2487.364014,528.792114 2499.857666,531.741821 
	C2517.490234,535.905090 2535.229004,539.847473 2552.505127,545.225769 
	C2569.702393,550.579529 2584.996094,559.667358 2596.883545,573.759705 
	C2610.172119,589.513184 2614.833496,607.930603 2614.192871,628.518127 
z"/>
<path fill="#FCC47C" opacity="1.000000" stroke="none" 
	d="
M1823.475342,474.476044 
	C1848.929688,446.596283 1880.548706,436.822723 1916.847046,442.168182 
	C1941.840942,445.848938 1958.688599,461.436768 1970.178833,483.181854 
	C1985.649780,512.460938 1989.004517,543.925354 1986.111206,576.350525 
	C1983.768677,602.602722 1975.343384,626.717041 1959.477173,647.950684 
	C1931.882324,684.880432 1885.156250,696.375366 1844.566895,675.622131 
	C1821.623779,663.891418 1805.543945,644.975220 1797.612305,620.772339 
	C1780.277344,567.875549 1787.568970,518.652283 1823.475342,474.476044 
M1837.806396,540.400818 
	C1832.671265,558.638794 1830.980225,577.135071 1835.270752,595.700562 
	C1840.265747,617.314514 1852.091187,633.561218 1874.657715,638.962952 
	C1897.808716,644.504517 1921.114990,633.547974 1934.346924,612.145813 
	C1941.441650,600.670532 1944.693359,588.094360 1945.244263,574.709900 
	C1946.132446,553.129150 1945.817993,531.688538 1937.008179,511.401550 
	C1932.539917,501.112579 1925.730103,492.562378 1914.806396,489.001038 
	C1895.052490,482.560822 1876.904419,486.266846 1861.292358,500.105438 
	C1849.342773,510.697571 1842.701416,524.637878 1837.806396,540.400818 
z"/>
<path fill="#FA6D6D" opacity="1.000000" stroke="none" 
	d="
M1450.224121,470.742737 
	C1462.673218,489.526459 1468.736938,510.164368 1471.152710,531.945312 
	C1474.611938,563.134338 1471.845947,593.579102 1458.113770,622.245544 
	C1446.626587,646.225769 1430.333618,665.876160 1404.764893,675.779358 
	C1361.905273,692.379639 1315.213501,675.498108 1291.578735,635.442017 
	C1278.076538,612.558655 1273.720581,587.617310 1274.424316,561.517822 
	C1275.386353,525.833618 1286.876221,493.932892 1311.703613,468.097046 
	C1339.405396,439.270111 1373.754150,431.214081 1412.085938,441.080688 
	C1428.574463,445.324860 1440.533203,456.571960 1450.224121,470.742737 
M1409.124756,490.315857 
	C1405.296631,488.350616 1401.671875,485.559753 1397.606323,484.558380 
	C1376.302979,479.311310 1356.931030,483.684509 1342.721680,500.652679 
	C1318.475586,529.606079 1312.611450,563.498047 1322.789429,599.245422 
	C1331.645996,630.351868 1361.788696,644.459534 1391.305908,632.854065 
	C1408.359009,626.149170 1419.871948,613.205444 1425.683594,596.020142 
	C1434.104004,571.120667 1432.326416,545.760315 1426.701782,520.562317 
	C1424.116943,508.982574 1419.153564,498.522522 1409.124756,490.315857 
z"/>
<path fill="#C994EB" opacity="1.000000" stroke="none" 
	d="
M2800.022949,445.817932 
	C2808.660400,446.235413 2816.840576,446.294525 2824.934814,447.157593 
	C2836.374268,448.377350 2843.112061,456.990662 2842.809326,469.147064 
	C2842.503662,481.431641 2834.600586,490.552216 2823.381592,491.163239 
	C2818.239258,491.443329 2813.045410,490.795105 2807.904541,491.086517 
	C2795.795898,491.772888 2783.708496,492.824615 2771.604736,493.607117 
	C2768.334473,493.818512 2768.559082,495.852203 2768.628174,498.127747 
	C2769.361572,522.268311 2770.077393,546.409546 2770.763428,570.551514 
	C2771.524902,597.358643 2772.349609,624.164551 2772.943115,650.975525 
	C2773.183594,661.837463 2772.369141,672.642334 2768.018311,682.827087 
	C2761.915771,697.110840 2746.050781,700.677673 2734.283447,690.473572 
	C2730.035645,686.790161 2727.638916,682.181885 2727.427979,676.555542 
	C2727.296875,673.062927 2727.214111,669.548645 2727.439697,666.065491 
	C2730.376709,620.727600 2726.474609,575.499084 2725.325684,530.227356 
	C2725.072266,520.237000 2724.553467,510.248718 2724.541992,500.259033 
	C2724.537109,495.846680 2723.056152,494.367828 2718.597168,494.066132 
	C2703.318359,493.032227 2688.012695,491.984253 2672.831299,490.048553 
	C2659.817871,488.389252 2653.545410,479.195709 2654.930176,465.792450 
	C2656.207520,453.429688 2665.070068,445.335541 2677.434326,445.959015 
	C2690.233887,446.604492 2703.004639,447.835205 2715.786621,448.822845 
	C2717.915283,448.987305 2720.038330,449.217499 2723.078369,449.503235 
	C2723.078369,446.594086 2723.153809,444.183960 2723.066162,441.779785 
	C2722.453857,424.969086 2721.523682,408.163971 2721.270020,391.348358 
	C2721.092529,379.600616 2729.749756,370.819580 2741.348877,369.920044 
	C2749.822266,369.262848 2756.952393,372.304291 2760.331787,380.025360 
	C2763.482178,387.222839 2766.091064,395.106293 2766.705811,402.864685 
	C2767.767578,416.266296 2767.101318,429.804840 2767.157715,443.285950 
	C2767.165039,445.063110 2767.158936,446.840363 2767.158936,448.910370 
	C2778.387451,447.837799 2788.957275,446.828156 2800.022949,445.817932 
z"/>
<path fill="#35DFBC" opacity="1.000000" stroke="none" 
	d="
M2243.949707,676.731079 
	C2239.424072,691.550293 2227.616455,697.515259 2213.396240,692.416992 
	C2205.097900,689.441956 2201.433838,682.888733 2201.326416,674.615051 
	C2201.138428,660.130127 2201.042725,645.611206 2201.791260,631.152283 
	C2206.615967,537.948486 2206.305176,444.633423 2208.148438,351.365631 
	C2208.187744,349.367523 2208.187744,347.367096 2208.288086,345.371887 
	C2208.686035,337.472931 2210.742188,330.278229 2218.826416,327.047729 
	C2227.791748,323.465118 2237.237305,323.128754 2244.907959,329.396881 
	C2248.459961,332.299194 2250.527588,337.928467 2251.610107,342.697754 
	C2252.801514,347.946320 2252.287109,353.631592 2252.173340,359.119446 
	C2250.394531,445.061798 2248.646729,531.005005 2246.673096,616.942993 
	C2246.218506,636.747375 2244.945801,656.532959 2243.949707,676.731079 
z"/>
<path fill="#35E0BC" opacity="1.000000" stroke="none" 
	d="
M2330.125732,524.908203 
	C2330.783447,508.953583 2331.391113,493.471863 2332.062744,477.992920 
	C2332.789307,461.253418 2346.259766,451.597168 2361.599854,456.770020 
	C2370.234131,459.681580 2375.788330,467.202301 2375.638428,477.644623 
	C2375.401855,494.130554 2375.001465,510.647552 2373.728271,527.078430 
	C2370.852295,564.203613 2371.339111,601.327209 2372.568359,638.477661 
	C2372.832764,646.469971 2373.056641,654.473145 2372.943115,662.466309 
	C2372.743896,676.516785 2363.849854,685.526367 2350.686768,685.358032 
	C2337.890625,685.194397 2329.239258,675.994324 2329.053223,662.262634 
	C2328.624512,630.609314 2327.949463,598.955566 2327.948242,567.302002 
	C2327.947754,553.328796 2329.342285,539.355591 2330.125732,524.908203 
z"/>
<path fill="#35DEBB" opacity="1.000000" stroke="none" 
	d="
M2383.401855,361.686462 
	C2388.905518,371.604675 2389.050537,381.230713 2382.610352,390.228882 
	C2376.110107,399.310760 2366.884766,403.070099 2355.902344,400.745117 
	C2345.439453,398.530121 2338.544189,391.907776 2335.669678,381.499542 
	C2332.830078,371.218292 2337.546143,359.927551 2347.008789,353.823944 
	C2356.563721,347.660797 2369.288086,348.311157 2377.765137,355.555023 
	C2379.771484,357.269501 2381.399658,359.426300 2383.401855,361.686462 
z"/>
<path fill="#CFD1D2" opacity="1.000000" stroke="none" 
	d="
M476.983887,846.192261 
	C488.971802,846.337585 501.148987,846.603027 513.809570,846.802185 
	C521.833984,846.761475 529.375000,846.787109 537.763000,846.906738 
	C540.055725,846.710205 541.501465,846.419617 542.947144,846.129028 
	C545.305969,846.035767 547.664856,845.942444 550.794128,845.923706 
	C552.360962,845.708679 553.157288,845.419128 553.953674,845.129578 
	C555.611511,845.020569 557.269287,844.911499 559.648254,844.852600 
	C560.899353,844.645203 561.429321,844.387695 561.959290,844.130188 
	C563.346985,844.051331 564.734741,843.972473 566.920044,843.983765 
	C568.227478,844.110229 568.737244,844.146667 569.247009,844.183105 
	C556.754089,845.519409 544.273865,847.798889 531.765137,847.968079 
	C513.578613,848.214233 495.371490,846.938904 476.983887,846.192261 
z"/>
<path fill="#DEDAD4" opacity="1.000000" stroke="none" 
	d="
M442.232300,840.568726 
	C449.547272,841.314819 457.066895,842.315979 464.567810,843.441772 
	C467.622620,843.900269 470.636780,844.629395 473.899109,845.549988 
	C463.562317,844.200928 452.995850,842.537354 442.232300,840.568726 
z"/>
<path fill="#CFD1D2" opacity="1.000000" stroke="none" 
	d="
M570.020081,843.119629 
	C571.163818,843.060242 572.307617,843.000793 574.155518,843.060303 
	C575.049988,843.203857 575.240295,843.228516 575.430664,843.253174 
	C573.889954,843.567383 572.349304,843.881592 570.411072,843.907471 
	C570.013550,843.619202 570.020081,843.119629 570.020081,843.119629 
z"/>
<path fill="#CFD1D2" opacity="1.000000" stroke="none" 
	d="
M576.019531,842.120911 
	C577.189392,842.062866 578.359314,842.004822 580.153809,842.033447 
	C580.778381,842.120117 581.170532,842.148376 581.170532,842.148376 
	C579.705750,842.500183 578.240967,842.851990 576.394104,842.920044 
	C576.014587,842.464417 576.017090,842.292664 576.019531,842.120911 
z"/>
<path fill="#CFD1D2" opacity="1.000000" stroke="none" 
	d="
M590.888184,840.193970 
	C591.736389,839.715576 592.992920,839.313965 594.668945,838.980225 
	C593.824524,839.455750 592.560547,839.863281 590.888184,840.193970 
z"/>
<path fill="#CFD1D2" opacity="1.000000" stroke="none" 
	d="
M582.016663,841.101562 
	C582.903564,841.057861 583.790466,841.014160 585.255127,841.053284 
	C585.832886,841.136047 586.129517,841.145996 586.129517,841.145996 
	C584.999023,841.469971 583.868591,841.793945 582.374023,841.845520 
	C582.009827,841.573120 582.016663,841.101562 582.016663,841.101562 
z"/>
<path fill="#CFD1D2" opacity="1.000000" stroke="none" 
	d="
M599.827271,838.135498 
	C600.539246,837.752808 601.601196,837.419922 603.025635,837.114563 
	C602.317810,837.489807 601.247437,837.837585 599.827271,838.135498 
z"/>
<path fill="#CFD1D2" opacity="1.000000" stroke="none" 
	d="
M596.015381,838.095947 
	C596.907776,838.050476 597.800171,838.005005 599.139648,837.994385 
	C598.650391,838.387512 597.714050,838.745728 596.390198,838.838074 
	C596.002747,838.572205 596.015381,838.095947 596.015381,838.095947 
z"/>
<path fill="#CFD1D2" opacity="1.000000" stroke="none" 
	d="
M587.017883,840.108704 
	C587.913574,840.058594 588.809204,840.008423 590.152710,840.008545 
	C589.666260,840.409424 588.732056,840.760010 587.405151,840.842834 
	C587.012512,840.575073 587.017883,840.108704 587.017883,840.108704 
z"/>
<path fill="#BCD5D1" opacity="1.000000" stroke="none" 
	d="
M569.692932,843.119324 
	C570.020081,843.119629 570.013550,843.619202 570.011536,843.869019 
	C570.009521,844.118774 569.643982,844.323914 569.445496,844.253540 
	C568.737244,844.146667 568.227478,844.110229 567.336121,844.025330 
	C567.758301,843.690857 568.562073,843.404907 569.692932,843.119324 
z"/>
<path fill="#BCD5D1" opacity="1.000000" stroke="none" 
	d="
M586.759399,840.113098 
	C587.017883,840.108704 587.012512,840.575073 587.015259,840.808228 
	C587.018066,841.041443 586.593506,841.248047 586.361511,841.197021 
	C586.129517,841.145996 585.832886,841.136047 585.697632,841.101318 
	C585.875183,840.750244 586.188049,840.433838 586.759399,840.113098 
z"/>
<path fill="#BCD5D1" opacity="1.000000" stroke="none" 
	d="
M581.747437,841.101440 
	C582.016663,841.101562 582.009827,841.573120 582.012573,841.808899 
	C582.015259,842.044678 581.612854,842.249023 581.391724,842.198730 
	C581.170532,842.148376 580.778381,842.120117 580.592407,842.076294 
	C580.763672,841.722107 581.120972,841.411682 581.747437,841.101440 
z"/>
<path fill="#BCD5D1" opacity="1.000000" stroke="none" 
	d="
M575.751221,842.131897 
	C576.017090,842.292664 576.014587,842.464417 576.008423,842.893799 
	C576.004822,843.151428 575.749695,843.379700 575.590210,843.316406 
	C575.240295,843.228516 575.049988,843.203857 574.582764,843.118164 
	C574.698242,842.752319 575.090637,842.447632 575.751221,842.131897 
z"/>
<path fill="#BCD5D1" opacity="1.000000" stroke="none" 
	d="
M595.744568,838.147339 
	C596.015381,838.095947 596.002747,838.572205 596.004272,838.810364 
	C595.846130,839.118286 595.686401,839.188110 595.276367,839.181519 
	C595.175354,838.802979 595.324585,838.500854 595.744568,838.147339 
z"/>
<path fill="#CB96EE" opacity="1.000000" stroke="none" 
	d="
M685.496216,804.379150 
	C685.329834,804.102783 685.466309,803.704468 685.926636,803.275513 
	C686.100037,803.582336 685.949585,803.919800 685.496216,804.379150 
z"/>
<path fill="#FFC67D" opacity="1.000000" stroke="none" 
	d="
M334.885803,797.402527 
	C335.146210,797.225586 335.590393,797.370728 336.251709,797.798340 
	C336.002380,797.962097 335.535980,797.843323 334.885803,797.402527 
z"/>
<path fill="#FFFFFF" opacity="1.000000" stroke="none" 
	d="
M514.255920,657.219849 
	C491.604462,674.924500 467.047211,674.355347 441.893372,665.146057 
	C436.660950,663.230347 431.895538,659.121155 427.822784,655.102661 
	C397.973907,625.652039 368.356293,595.967102 338.384888,566.200317 
	C328.518311,556.355896 318.935150,546.664673 309.346100,536.979248 
	C300.177063,527.718079 300.142242,517.394592 309.285889,508.030396 
	C318.813812,498.272583 328.362549,488.535095 338.052307,478.490662 
	C340.599274,475.895050 343.029449,473.631104 345.387207,471.294098 
	C355.441986,461.327820 366.476288,461.216675 376.417725,471.121918 
	C403.049622,497.656799 429.639893,524.233459 456.260132,550.780090 
	C467.068115,561.558228 476.777313,561.509888 487.640594,550.613037 
	C496.446228,541.780151 505.200958,532.896545 514.153259,523.781677 
	C515.915100,522.061340 517.554504,520.647278 519.081238,519.120605 
	C564.555054,473.648499 610.010681,428.158112 655.487793,382.689362 
	C665.202026,372.976868 675.025757,372.675323 685.711548,381.806885 
	C698.113831,394.521606 710.174561,407.127747 722.324646,419.647156 
	C732.094666,429.714142 732.149475,439.174744 722.269592,449.112091 
	C710.312622,461.138519 698.319275,473.128784 686.177185,485.405029 
	C685.018127,486.548187 683.970825,487.368256 683.036438,488.301331 
	C627.838562,543.421997 572.649170,598.551208 517.467346,653.688049 
	C516.412109,654.742432 515.457886,655.897888 514.255920,657.219849 
z"/>
<path fill="#BCD5D1" opacity="1.000000" stroke="none" 
	d="
M542.571716,846.105103 
	C541.501465,846.419617 540.055725,846.710205 538.218689,846.958496 
	C539.283630,846.637878 540.739990,846.359558 542.571716,846.105103 
z"/>
<path fill="#BCD5D1" opacity="1.000000" stroke="none" 
	d="
M553.629150,845.120605 
	C553.157288,845.419128 552.360962,845.708679 551.233032,845.973511 
	C551.702576,845.669739 552.503540,845.390686 553.629150,845.120605 
z"/>
<path fill="#BCD5D1" opacity="1.000000" stroke="none" 
	d="
M561.660400,844.136902 
	C561.429321,844.387695 560.899353,844.645203 560.061829,844.892212 
	C560.290039,844.635620 560.825806,844.389648 561.660400,844.136902 
z"/>
<path fill="#0F1218" opacity="1.000000" stroke="none" 
	d="
M1692.623169,611.312439 
	C1681.336182,621.510254 1670.571045,631.964844 1656.135864,636.800903 
	C1612.073853,651.562378 1566.192017,619.994690 1564.277344,573.506958 
	C1563.525269,555.248718 1565.415405,537.248840 1572.664917,520.138245 
	C1582.356934,497.263153 1600.079468,485.238373 1624.176758,481.966736 
	C1640.119873,479.802185 1655.783325,480.343750 1670.296509,488.546997 
	C1681.592285,494.931488 1689.310425,504.552704 1694.845215,516.046753 
	C1695.586670,517.586487 1695.487793,519.612854 1695.490356,521.414307 
	C1695.528320,548.739258 1695.588013,576.064758 1695.404297,603.388489 
	C1695.387207,605.940674 1693.761108,608.482056 1692.623169,611.312439 
z"/>
<path fill="#0F1218" opacity="1.000000" stroke="none" 
	d="
M1837.903564,540.008606 
	C1842.701416,524.637878 1849.342773,510.697571 1861.292358,500.105438 
	C1876.904419,486.266846 1895.052490,482.560822 1914.806396,489.001038 
	C1925.730103,492.562378 1932.539917,501.112579 1937.008179,511.401550 
	C1945.817993,531.688538 1946.132446,553.129150 1945.244263,574.709900 
	C1944.693359,588.094360 1941.441650,600.670532 1934.346924,612.145813 
	C1921.114990,633.547974 1897.808716,644.504517 1874.657715,638.962952 
	C1852.091187,633.561218 1840.265747,617.314514 1835.270752,595.700562 
	C1830.980225,577.135071 1832.671265,558.638794 1837.903564,540.008606 
z"/>
<path fill="#0F1218" opacity="1.000000" stroke="none" 
	d="
M1409.416748,490.525909 
	C1419.153564,498.522522 1424.116943,508.982574 1426.701782,520.562317 
	C1432.326416,545.760315 1434.104004,571.120667 1425.683594,596.020142 
	C1419.871948,613.205444 1408.359009,626.149170 1391.305908,632.854065 
	C1361.788696,644.459534 1331.645996,630.351868 1322.789429,599.245422 
	C1312.611450,563.498047 1318.475586,529.606079 1342.721680,500.652679 
	C1356.931030,483.684509 1376.302979,479.311310 1397.606323,484.558380 
	C1401.671875,485.559753 1405.296631,488.350616 1409.416748,490.525909 
z"/>
</svg>